<?xml version="1.0" encoding="utf-8"?>
<!-- Source: SVG Repo — compass-2 (www.svgrepo.com). Recolored with currentColor for site use. -->
<svg xmlns="http://www.w3.org/2000/svg" viewBox="0 0 512 512" width="512" height="512" fill="currentColor">
  <path d="M210.781,210.797l3.875-18.859l-63.031-41.578c-0.344-0.234-0.844-0.188-1.156,0.125c-0.297,0.297-0.344,0.797-0.109,1.156l41.578,63.016L210.781,210.797z"/>
  <path d="M320.063,297.344l-18.844,3.875l-3.875,18.844l63.031,41.578c0.344,0.25,0.844,0.188,1.156-0.125c0.297-0.297,0.344-0.781,0.094-1.141L320.063,297.344z"/>
  <path d="M320.063,214.656l41.578-63.016c0.234-0.359,0.188-0.859-0.109-1.156c-0.313-0.313-0.813-0.359-1.156-0.125l-63.031,41.578l3.875,18.859L320.063,214.656z"/>
  <path d="M191.938,297.344l-41.578,63.031c-0.234,0.359-0.188,0.844,0.109,1.141c0.313,0.313,0.813,0.375,1.156,0.125l63.031-41.578l-3.875-18.844L191.938,297.344z"/>
  <path d="M436.531,255.094l-149.094-30.531L256.906,75.484c-0.094-0.438-0.469-0.734-0.906-0.734s-0.813,0.297-0.906,0.734l-30.531,149.078L75.469,255.094c-0.406,0.094-0.719,0.469-0.719,0.906s0.313,0.813,0.719,0.906l149.094,30.547l30.531,149.063c0.094,0.438,0.469,0.734,0.906,0.734s0.813-0.297,0.906-0.734l30.531-149.063l149.094-30.547c0.406-0.094,0.719-0.469,0.719-0.906S436.938,255.188,436.531,255.094z M256,278.344c-12.344,0-22.344-10.016-22.344-22.344s10-22.344,22.344-22.344s22.344,10.016,22.344,22.344S268.344,278.344,256,278.344z"/>
  <path d="M491.844,156.406c-19.5-45.969-51.938-84.984-92.766-112.609c-20.422-13.797-42.953-24.75-67.016-32.25S282.406,0,256,0c-35.219,0-68.953,7.188-99.594,20.156c-45.969,19.5-84.984,51.938-112.609,92.766c-13.813,20.422-24.766,42.953-32.266,67.016S0,229.594,0,256c0,35.234,7.188,68.969,20.156,99.594c19.5,45.969,51.922,84.984,92.766,112.609c20.422,13.813,42.953,24.766,67.016,32.266S229.594,512,256,512c35.219,0,68.969-7.188,99.594-20.172c45.969-19.469,84.984-51.922,112.609-92.75c13.813-20.422,24.766-42.953,32.266-67.016S512,282.406,512,256C512,220.781,504.813,187.047,491.844,156.406z M434.313,331.219c-14.688,34.672-39.313,64.328-70.234,85.219c-15.453,10.469-32.484,18.719-50.609,24.375c-18.141,5.656-37.406,8.719-57.469,8.719c-26.734,0-52.078-5.438-75.219-15.219c-34.688-14.688-64.313-39.313-85.219-70.234c-10.469-15.453-18.719-32.469-24.375-50.609S62.484,276.063,62.469,256c0.016-26.734,5.438-52.094,15.219-75.219c14.688-34.672,39.313-64.313,70.234-85.219c15.453-10.453,32.469-18.719,50.609-24.375s37.406-8.703,57.469-8.703c26.75,0,52.094,5.422,75.219,15.219c34.688,14.672,64.313,39.297,85.219,70.219c10.469,15.453,18.719,32.484,24.375,50.609c5.656,18.156,8.719,37.406,8.719,57.469C449.516,282.734,444.094,308.094,434.313,331.219z"/>
</svg>
